<svg xmlns="http://www.w3.org/2000/svg" width="554" height="1870">
<rect width="554" height="1870" fill="white"/>
<defs>
<marker id="arrow" markerWidth="10" markerHeight="7" refX="10" refY="3.5" orient="auto">
<polygon points="0 0, 10 3.5, 0 7" fill="black"/>
</marker>
</defs>
<text x="64" y="54" font-size="14" font-weight="bold" font-family="sans-serif" fill="#333">input</text>
<text x="314" y="54" font-size="14" font-weight="bold" font-family="sans-serif" fill="#333">territorial</text>
<text x="38" y="140" font-size="14" font-weight="bold" font-family="sans-serif" fill="#999">0.</text>
<rect x="64" y="70" width="200" height="140" fill="none" stroke="#ccc" stroke-width="1"/>
<rect x="72" y="78" width="184" height="124" fill="#1a3a6b" stroke="black" stroke-width="1"/>
<text x="164" y="140" text-anchor="middle" dominant-baseline="central" font-size="16" fill="white">0</text>
<line x1="274" y1="140" x2="304" y2="140" stroke="black" stroke-width="1.5" marker-end="url(#arrow)"/>
<rect x="314" y="70" width="200" height="140" fill="none" stroke="#ccc" stroke-width="1"/>
<rect x="322" y="78" width="92" height="124" fill="#1a3a6b" stroke="black" stroke-width="1"/>
<text x="368" y="140" text-anchor="middle" dominant-baseline="central" font-size="16" fill="white">0</text>
<rect x="414" y="78" width="92" height="124" fill="#a8d0e6" stroke="black" stroke-width="1"/>
<text x="460" y="140" text-anchor="middle" dominant-baseline="central" font-size="16" fill="black">1</text>
<text x="64" y="228" font-size="11" font-family="monospace">0</text>
<text x="314" y="228" font-size="11" font-family="monospace">v(0, 1)</text>
<text x="64" y="244" font-size="11" font-family="monospace" fill="#555">split(0, right)</text>
<text x="314" y="244" font-size="10" font-family="monospace" fill="#888">[split_v(0)]</text>
<text x="289" y="260" text-anchor="middle" font-size="12" font-family="sans-serif" fill="#888">split right</text>
<text x="38" y="360" font-size="14" font-weight="bold" font-family="sans-serif" fill="#999">1.</text>
<rect x="64" y="290" width="200" height="140" fill="none" stroke="#ccc" stroke-width="1"/>
<rect x="72" y="298" width="184" height="124" fill="#1a3a6b" stroke="black" stroke-width="1"/>
<text x="164" y="360" text-anchor="middle" dominant-baseline="central" font-size="16" fill="white">0</text>
<line x1="274" y1="360" x2="304" y2="360" stroke="black" stroke-width="1.5" marker-end="url(#arrow)"/>
<rect x="314" y="290" width="200" height="140" fill="none" stroke="#ccc" stroke-width="1"/>
<rect x="322" y="298" width="92" height="124" fill="#a8d0e6" stroke="black" stroke-width="1"/>
<text x="368" y="360" text-anchor="middle" dominant-baseline="central" font-size="16" fill="black">1</text>
<rect x="414" y="298" width="92" height="124" fill="#1a3a6b" stroke="black" stroke-width="1"/>
<text x="460" y="360" text-anchor="middle" dominant-baseline="central" font-size="16" fill="white">0</text>
<text x="64" y="448" font-size="11" font-family="monospace">0</text>
<text x="314" y="448" font-size="11" font-family="monospace">v(1, 0)</text>
<text x="64" y="464" font-size="11" font-family="monospace" fill="#555">split(0, left)</text>
<text x="314" y="464" font-size="10" font-family="monospace" fill="#888">[split_v(0); swap(0)]</text>
<text x="289" y="480" text-anchor="middle" font-size="12" font-family="sans-serif" fill="#888">split left</text>
<text x="38" y="580" font-size="14" font-weight="bold" font-family="sans-serif" fill="#999">2.</text>
<rect x="64" y="510" width="200" height="140" fill="none" stroke="#ccc" stroke-width="1"/>
<rect x="72" y="518" width="184" height="124" fill="#1a3a6b" stroke="black" stroke-width="1"/>
<text x="164" y="580" text-anchor="middle" dominant-baseline="central" font-size="16" fill="white">0</text>
<line x1="274" y1="580" x2="304" y2="580" stroke="black" stroke-width="1.5" marker-end="url(#arrow)"/>
<rect x="314" y="510" width="200" height="140" fill="none" stroke="#ccc" stroke-width="1"/>
<rect x="322" y="518" width="184" height="62" fill="#1a3a6b" stroke="black" stroke-width="1"/>
<text x="414" y="549" text-anchor="middle" dominant-baseline="central" font-size="16" fill="white">0</text>
<rect x="322" y="580" width="184" height="62" fill="#a8d0e6" stroke="black" stroke-width="1"/>
<text x="414" y="611" text-anchor="middle" dominant-baseline="central" font-size="16" fill="black">1</text>
<text x="64" y="668" font-size="11" font-family="monospace">0</text>
<text x="314" y="668" font-size="11" font-family="monospace">h(0, 1)</text>
<text x="64" y="684" font-size="11" font-family="monospace" fill="#555">split(0, down)</text>
<text x="314" y="684" font-size="10" font-family="monospace" fill="#888">[split_h(0)]</text>
<text x="289" y="700" text-anchor="middle" font-size="12" font-family="sans-serif" fill="#888">split down</text>
<text x="38" y="800" font-size="14" font-weight="bold" font-family="sans-serif" fill="#999">3.</text>
<rect x="64" y="730" width="200" height="140" fill="none" stroke="#ccc" stroke-width="1"/>
<rect x="72" y="738" width="184" height="124" fill="#1a3a6b" stroke="black" stroke-width="1"/>
<text x="164" y="800" text-anchor="middle" dominant-baseline="central" font-size="16" fill="white">0</text>
<line x1="274" y1="800" x2="304" y2="800" stroke="black" stroke-width="1.5" marker-end="url(#arrow)"/>
<rect x="314" y="730" width="200" height="140" fill="none" stroke="#ccc" stroke-width="1"/>
<rect x="322" y="738" width="184" height="62" fill="#a8d0e6" stroke="black" stroke-width="1"/>
<text x="414" y="769" text-anchor="middle" dominant-baseline="central" font-size="16" fill="black">1</text>
<rect x="322" y="800" width="184" height="62" fill="#1a3a6b" stroke="black" stroke-width="1"/>
<text x="414" y="831" text-anchor="middle" dominant-baseline="central" font-size="16" fill="white">0</text>
<text x="64" y="888" font-size="11" font-family="monospace">0</text>
<text x="314" y="888" font-size="11" font-family="monospace">h(1, 0)</text>
<text x="64" y="904" font-size="11" font-family="monospace" fill="#555">split(0, up)</text>
<text x="314" y="904" font-size="10" font-family="monospace" fill="#888">[split_h(0); swap(0)]</text>
<text x="289" y="920" text-anchor="middle" font-size="12" font-family="sans-serif" fill="#888">split up</text>
<text x="38" y="1020" font-size="14" font-weight="bold" font-family="sans-serif" fill="#999">4.</text>
<rect x="64" y="950" width="200" height="140" fill="none" stroke="#ccc" stroke-width="1"/>
<rect x="72" y="958" width="184" height="62" fill="#1a3a6b" stroke="black" stroke-width="1"/>
<text x="164" y="989" text-anchor="middle" dominant-baseline="central" font-size="16" fill="white">0</text>
<rect x="72" y="1020" width="184" height="62" fill="white" stroke="black" stroke-width="1"/>
<text x="164" y="1051" text-anchor="middle" dominant-baseline="central" font-size="16" fill="black">1</text>
<line x1="274" y1="1020" x2="304" y2="1020" stroke="black" stroke-width="1.5" marker-end="url(#arrow)"/>
<rect x="314" y="950" width="200" height="140" fill="none" stroke="#ccc" stroke-width="1"/>
<rect x="322" y="958" width="184" height="124" fill="#a8d0e6" stroke="black" stroke-width="1"/>
<text x="414" y="1020" text-anchor="middle" dominant-baseline="central" font-size="16" fill="black">1</text>
<text x="64" y="1108" font-size="11" font-family="monospace">h(0, 1)</text>
<text x="314" y="1108" font-size="11" font-family="monospace">1</text>
<text x="64" y="1124" font-size="11" font-family="monospace" fill="#555">close(0)</text>
<text x="314" y="1124" font-size="10" font-family="monospace" fill="#888">[close_h_l(0)]</text>
<text x="289" y="1140" text-anchor="middle" font-size="12" font-family="sans-serif" fill="#888">close left child of H</text>
<text x="38" y="1240" font-size="14" font-weight="bold" font-family="sans-serif" fill="#999">5.</text>
<rect x="64" y="1170" width="200" height="140" fill="none" stroke="#ccc" stroke-width="1"/>
<rect x="72" y="1178" width="184" height="62" fill="white" stroke="black" stroke-width="1"/>
<text x="164" y="1209" text-anchor="middle" dominant-baseline="central" font-size="16" fill="black">0</text>
<rect x="72" y="1240" width="184" height="62" fill="#1a3a6b" stroke="black" stroke-width="1"/>
<text x="164" y="1271" text-anchor="middle" dominant-baseline="central" font-size="16" fill="white">1</text>
<line x1="274" y1="1240" x2="304" y2="1240" stroke="black" stroke-width="1.5" marker-end="url(#arrow)"/>
<rect x="314" y="1170" width="200" height="140" fill="none" stroke="#ccc" stroke-width="1"/>
<rect x="322" y="1178" width="184" height="124" fill="#a8d0e6" stroke="black" stroke-width="1"/>
<text x="414" y="1240" text-anchor="middle" dominant-baseline="central" font-size="16" fill="black">0</text>
<text x="64" y="1328" font-size="11" font-family="monospace">h(0, 1)</text>
<text x="314" y="1328" font-size="11" font-family="monospace">0</text>
<text x="64" y="1344" font-size="11" font-family="monospace" fill="#555">close(1)</text>
<text x="314" y="1344" font-size="10" font-family="monospace" fill="#888">[close_h_r(1)]</text>
<text x="289" y="1360" text-anchor="middle" font-size="12" font-family="sans-serif" fill="#888">close right child of H</text>
<text x="38" y="1460" font-size="14" font-weight="bold" font-family="sans-serif" fill="#999">6.</text>
<rect x="64" y="1390" width="200" height="140" fill="none" stroke="#ccc" stroke-width="1"/>
<rect x="72" y="1398" width="92" height="124" fill="#1a3a6b" stroke="black" stroke-width="1"/>
<text x="118" y="1460" text-anchor="middle" dominant-baseline="central" font-size="16" fill="white">0</text>
<rect x="164" y="1398" width="92" height="124" fill="white" stroke="black" stroke-width="1"/>
<text x="210" y="1460" text-anchor="middle" dominant-baseline="central" font-size="16" fill="black">1</text>
<line x1="274" y1="1460" x2="304" y2="1460" stroke="black" stroke-width="1.5" marker-end="url(#arrow)"/>
<rect x="314" y="1390" width="200" height="140" fill="none" stroke="#ccc" stroke-width="1"/>
<rect x="322" y="1398" width="184" height="124" fill="#a8d0e6" stroke="black" stroke-width="1"/>
<text x="414" y="1460" text-anchor="middle" dominant-baseline="central" font-size="16" fill="black">1</text>
<text x="64" y="1548" font-size="11" font-family="monospace">v(0, 1)</text>
<text x="314" y="1548" font-size="11" font-family="monospace">1</text>
<text x="64" y="1564" font-size="11" font-family="monospace" fill="#555">close(0)</text>
<text x="314" y="1564" font-size="10" font-family="monospace" fill="#888">[close_v_l(0)]</text>
<text x="289" y="1580" text-anchor="middle" font-size="12" font-family="sans-serif" fill="#888">close left child of V</text>
<text x="38" y="1680" font-size="14" font-weight="bold" font-family="sans-serif" fill="#999">7.</text>
<rect x="64" y="1610" width="200" height="140" fill="none" stroke="#ccc" stroke-width="1"/>
<rect x="72" y="1618" width="92" height="124" fill="white" stroke="black" stroke-width="1"/>
<text x="118" y="1680" text-anchor="middle" dominant-baseline="central" font-size="16" fill="black">0</text>
<rect x="164" y="1618" width="92" height="124" fill="#1a3a6b" stroke="black" stroke-width="1"/>
<text x="210" y="1680" text-anchor="middle" dominant-baseline="central" font-size="16" fill="white">1</text>
<line x1="274" y1="1680" x2="304" y2="1680" stroke="black" stroke-width="1.5" marker-end="url(#arrow)"/>
<rect x="314" y="1610" width="200" height="140" fill="none" stroke="#ccc" stroke-width="1"/>
<rect x="322" y="1618" width="184" height="124" fill="#a8d0e6" stroke="black" stroke-width="1"/>
<text x="414" y="1680" text-anchor="middle" dominant-baseline="central" font-size="16" fill="black">0</text>
<text x="64" y="1768" font-size="11" font-family="monospace">v(0, 1)</text>
<text x="314" y="1768" font-size="11" font-family="monospace">0</text>
<text x="64" y="1784" font-size="11" font-family="monospace" fill="#555">close(1)</text>
<text x="314" y="1784" font-size="10" font-family="monospace" fill="#888">[close_v_r(1)]</text>
<text x="289" y="1800" text-anchor="middle" font-size="12" font-family="sans-serif" fill="#888">close right child of V</text>
</svg>
